<svg xmlns="http://www.w3.org/2000/svg" viewBox="0 0 455 40">
        <defs>
          <clipPath id="squareClip">
            <rect x="0" y="0" width="40" height="40" rx="15" />
          </clipPath>
        </defs>
        <g clip-path="url(#squareClip)">
          <rect x="0" y="0" width="40" height="40" fill="#D1F1FF" />
          <g transform="translate(20 20)">
            <g transform="scale(0.08)">
              <g transform="translate(-128 -128)">
                <path d="M227.32,48.75A8,8,0,0,0,218.76,50c-28,24.22-51.72,12.48-79.21-1.13C111.07,34.76,78.78,18.79,42.76,50h0A8,8,0,0,0,40,56V224a8,8,0,0,0,16,0V179.77c26.79-21.16,49.87-9.75,76.45,3.41,16.4,8.11,34.06,16.85,53,16.85,13.93,0,28.54-4.75,43.82-18a8,8,0,0,0,2.76-6V56A8,8,0,0,0,227.32,48.75ZM56,160.44V109.88c16.85-11.28,32.64-11.59,48-7.34v51.74C88.87,150.47,72.87,150.71,56,160.44ZM104,50.87c9.25,2.83,18.61,7.45,28.45,12.32,11.26,5.57,23.11,11.43,35.55,14.56v51.74c15.35,4.25,31.14,3.94,48-7.35v50.11c-16.87,13.32-32.27,13.72-48,8.91V129.49c-21.62-6-42.38-21-64-26.95Z" fill="#0C87EB"></path>
              </g>
            </g>
          </g>
        </g>
        <path fill="#0C87EB" d="M48.98 29L46.27 29L46.27 17.10L48.91 17.10L48.96 19.04Q49.56 17.98 50.58 17.40Q51.60 16.81 52.94 16.81L52.94 16.81L52.94 19.66L52.20 19.66Q50.57 19.66 49.78 20.48Q48.98 21.30 48.98 23.02L48.98 23.02L48.98 29ZM58.70 29.29L58.70 29.29Q56.90 29.29 55.56 28.48Q54.22 27.68 53.46 26.28Q52.70 24.87 52.70 23.05L52.70 23.05Q52.70 21.15 53.46 19.76Q54.22 18.37 55.57 17.59Q56.93 16.81 58.73 16.81L58.73 16.81Q60.48 16.81 61.78 17.56Q63.07 18.32 63.82 19.64Q64.56 20.96 64.56 22.64L64.56 22.64Q64.56 22.98 64.55 23.24Q64.54 23.50 64.49 23.82L64.49 23.82L55.44 23.82Q55.51 24.75 55.92 25.48Q56.33 26.22 57.04 26.62Q57.74 27.03 58.66 27.03L58.66 27.03Q59.64 27.03 60.32 26.60Q61.01 26.17 61.39 25.35L61.39 25.35L64.25 25.35Q63.91 26.43 63.18 27.32Q62.45 28.21 61.33 28.75Q60.22 29.29 58.70 29.29ZM55.46 21.92L55.46 21.92L61.78 21.92Q61.75 20.60 60.84 19.83Q59.93 19.06 58.66 19.06L58.66 19.06Q57.50 19.06 56.58 19.76Q55.66 20.46 55.46 21.92ZM69.07 29.29L69.07 29.29Q67.97 29.29 67.02 28.87Q66.07 28.45 65.51 27.63Q64.94 26.82 64.94 25.69L64.94 25.69Q64.94 24.34 65.62 23.50Q66.29 22.66 67.44 22.27Q68.59 21.87 69.98 21.87L69.98 21.87L72.96 21.87Q72.96 20.91 72.65 20.30Q72.34 19.69 71.78 19.39Q71.23 19.09 70.49 19.09L70.49 19.09Q69.53 19.09 68.81 19.52Q68.09 19.95 67.92 20.94L67.92 20.94L65.18 20.94Q65.30 19.64 66.06 18.72Q66.82 17.79 67.99 17.30Q69.17 16.81 70.51 16.81L70.51 16.81Q72.24 16.81 73.38 17.44Q74.52 18.08 75.11 19.21Q75.70 20.34 75.70 21.82L75.70 21.82L75.70 25.45Q75.72 26.10 76.02 26.38Q76.32 26.67 76.97 26.70L76.97 26.70L76.97 29Q75.96 29 75.24 28.78Q74.52 28.57 74.05 28.14Q73.58 27.70 73.30 27.01L73.30 27.01Q72.72 27.97 71.60 28.63Q70.49 29.29 69.07 29.29ZM69.77 27.08L69.77 27.08Q70.70 27.08 71.41 26.64Q72.12 26.19 72.54 25.44Q72.96 24.68 72.96 23.77L72.96 23.77L72.96 23.70L70.18 23.70Q69.55 23.70 68.98 23.86Q68.40 24.03 68.06 24.40Q67.73 24.78 67.73 25.42L67.73 25.42Q67.73 26.29 68.33 26.68Q68.93 27.08 69.77 27.08ZM82.90 29.29L82.90 29.29Q81.14 29.29 79.80 28.50Q78.46 27.70 77.69 26.30Q76.92 24.90 76.92 23.05L76.92 23.05Q76.92 21.22 77.66 19.82Q78.41 18.42 79.75 17.61Q81.10 16.81 82.90 16.81L82.90 16.81Q85.06 16.81 86.53 17.90Q88.01 18.99 88.49 21.01L88.49 21.01L85.61 21.01Q85.39 20.17 84.67 19.64Q83.95 19.11 82.87 19.11L82.87 19.11Q81.79 19.11 81.10 19.65Q80.40 20.19 80.05 21.09Q79.70 21.99 79.70 23.05L79.70 23.05Q79.70 24.15 80.06 25.04Q80.42 25.93 81.13 26.46Q81.84 26.98 82.87 26.98L82.87 26.98Q83.93 26.98 84.64 26.49Q85.34 26 85.61 25.09L85.61 25.09L88.49 25.09Q88.20 26.38 87.42 27.33Q86.64 28.28 85.49 28.78Q84.34 29.29 82.90 29.29ZM95.81 29L93.91 29Q92.09 29 91.13 28.11Q90.17 27.22 90.17 25.28L90.17 25.28L90.17 19.38L88.46 19.38L88.46 17.10L90.17 17.10L90.17 14.22L92.90 14.22L92.90 17.10L95.81 17.10L95.81 19.38L92.90 19.38L92.90 25.30Q92.90 26.12 93.29 26.42Q93.67 26.72 94.44 26.72L94.44 26.72L95.81 26.72L95.81 29ZM105.17 23.19L96.82 23.19L96.82 20.91L105.17 20.91L105.17 23.19ZM109.30 29L106.58 29L106.58 17.10L109.22 17.10L109.27 18.58Q109.87 17.70 110.81 17.25Q111.74 16.81 112.85 16.81L112.85 16.81Q114.22 16.81 115.33 17.37Q116.45 17.94 117.05 19.14L117.05 19.14Q117.67 18.03 118.74 17.42Q119.81 16.81 121.08 16.81L121.08 16.81Q122.47 16.81 123.56 17.37Q124.66 17.94 125.28 19.09Q125.90 20.24 125.90 21.99L125.90 21.99L125.90 29L123.22 29L123.22 22.35Q123.22 20.84 122.53 20Q121.85 19.16 120.50 19.16L120.50 19.16Q119.14 19.16 118.37 20.06Q117.60 20.96 117.60 22.54L117.60 22.54L117.60 29L114.91 29L114.91 22.35Q114.91 20.82 114.20 19.99Q113.50 19.16 112.18 19.16L112.18 19.16Q111.00 19.16 110.15 19.99Q109.30 20.82 109.30 22.54L109.30 22.54L109.30 29ZM132.74 29.29L132.74 29.29Q130.99 29.29 129.60 28.52Q128.21 27.75 127.40 26.35Q126.60 24.94 126.60 23.05L126.60 23.05Q126.60 21.10 127.44 19.71Q128.28 18.32 129.70 17.56Q131.11 16.81 132.84 16.81L132.84 16.81Q134.59 16.81 136.00 17.56Q137.40 18.32 138.23 19.71Q139.06 21.10 139.06 23.05L139.06 23.05Q139.06 24.85 138.25 26.26Q137.45 27.68 136.02 28.48Q134.59 29.29 132.74 29.29ZM132.77 26.94L132.77 26.94Q133.80 26.94 134.58 26.42Q135.36 25.90 135.82 25.02Q136.27 24.13 136.27 23L136.27 23Q136.27 21.82 135.82 20.96Q135.36 20.10 134.58 19.63Q133.80 19.16 132.79 19.16L132.79 19.16Q131.74 19.16 130.96 19.66Q130.18 20.17 129.77 21.04Q129.36 21.92 129.36 23.05L129.36 23.05Q129.36 24.27 129.83 25.15Q130.30 26.02 131.08 26.48Q131.86 26.94 132.77 26.94ZM145.20 29.29L145.20 29.29Q143.42 29.29 142.16 28.44Q140.90 27.58 140.22 26.17Q139.54 24.75 139.54 23L139.54 23Q139.54 21.27 140.22 19.87Q140.90 18.46 142.18 17.64Q143.45 16.81 145.20 16.81L145.20 16.81Q146.45 16.81 147.53 17.32Q148.61 17.84 149.28 18.82L149.28 18.82L149.28 12.20L152.02 12.20L152.02 29L149.35 29L149.28 27.20Q148.70 28.16 147.62 28.72Q146.54 29.29 145.20 29.29ZM145.80 26.91L145.80 26.91Q146.88 26.91 147.65 26.41Q148.42 25.90 148.85 25.03Q149.28 24.15 149.28 23.05L149.28 23.05Q149.28 21.78 148.79 20.91Q148.30 20.05 147.49 19.62Q146.69 19.18 145.78 19.18L145.78 19.18Q144.77 19.18 143.99 19.68Q143.21 20.17 142.76 21.02Q142.32 21.87 142.32 23.02L142.32 23.02Q142.32 24.15 142.78 25.03Q143.23 25.90 144.01 26.41Q144.79 26.91 145.80 26.91ZM157.92 29.29L157.92 29.29Q156.43 29.29 155.36 28.66Q154.30 28.04 153.72 26.88Q153.14 25.71 153.14 24.13L153.14 24.13L153.14 17.10L155.86 17.10L155.86 23.74Q155.86 25.23 156.56 26.11Q157.27 26.98 158.66 26.98L158.66 26.98Q160.08 26.98 160.87 26.07Q161.66 25.16 161.66 23.55L161.66 23.55L161.66 17.10L164.38 17.10L164.38 29L161.74 29L161.69 27.37Q161.09 28.28 160.08 28.78Q159.07 29.29 157.92 29.29ZM168.43 29L165.72 29L165.72 12.20L168.43 12.20L168.43 29ZM173.54 29.29L173.54 29.29Q172.44 29.29 171.49 28.87Q170.54 28.45 169.98 27.63Q169.42 26.82 169.42 25.69L169.42 25.69Q169.42 24.34 170.09 23.50Q170.76 22.66 171.91 22.27Q173.06 21.87 174.46 21.87L174.46 21.87L177.43 21.87Q177.43 20.91 177.12 20.30Q176.81 19.69 176.26 19.39Q175.70 19.09 174.96 19.09L174.96 19.09Q174.00 19.09 173.28 19.52Q172.56 19.95 172.39 20.94L172.39 20.94L169.66 20.94Q169.78 19.64 170.53 18.72Q171.29 17.79 172.46 17.30Q173.64 16.81 174.98 16.81L174.98 16.81Q176.71 16.81 177.85 17.44Q178.99 18.08 179.58 19.21Q180.17 20.34 180.17 21.82L180.17 21.82L180.17 25.45Q180.19 26.10 180.49 26.38Q180.79 26.67 181.44 26.70L181.44 26.70L181.44 29Q180.43 29 179.71 28.78Q178.99 28.57 178.52 28.14Q178.06 27.70 177.77 27.01L177.77 27.01Q177.19 27.97 176.08 28.63Q174.96 29.29 173.54 29.29ZM174.24 27.08L174.24 27.08Q175.18 27.08 175.88 26.64Q176.59 26.19 177.01 25.44Q177.43 24.68 177.43 23.77L177.43 23.77L177.43 23.70L174.65 23.70Q174.02 23.70 173.45 23.86Q172.87 24.03 172.54 24.40Q172.20 24.78 172.20 25.42L172.20 25.42Q172.20 26.29 172.80 26.68Q173.40 27.08 174.24 27.08ZM184.75 29L182.04 29L182.04 17.10L184.68 17.10L184.73 19.04Q185.33 17.98 186.35 17.40Q187.37 16.81 188.71 16.81L188.71 16.81L188.71 19.66L187.97 19.66Q186.34 19.66 185.54 20.48Q184.75 21.30 184.75 23.02L184.75 23.02L184.75 29ZM197.64 23.19L189.29 23.19L189.29 20.91L197.64 20.91L197.64 23.19ZM202.20 29L199.49 29L199.49 19.38L197.95 19.38L197.95 17.10L199.49 17.10L199.49 15.97Q199.49 13.95 200.50 13.08Q201.50 12.20 203.30 12.20L203.30 12.20L204.38 12.20L204.38 14.53L203.74 14.53Q202.90 14.53 202.55 14.85Q202.20 15.18 202.20 15.97L202.20 15.97L202.20 17.10L204.60 17.10L204.60 19.38L202.20 19.38L202.20 29ZM210.48 29.29L210.48 29.29Q208.68 29.29 207.34 28.48Q205.99 27.68 205.24 26.28Q204.48 24.87 204.48 23.05L204.48 23.05Q204.48 21.15 205.24 19.76Q205.99 18.37 207.35 17.59Q208.70 16.81 210.50 16.81L210.50 16.81Q212.26 16.81 213.55 17.56Q214.85 18.32 215.59 19.64Q216.34 20.96 216.34 22.64L216.34 22.64Q216.34 22.98 216.32 23.24Q216.31 23.50 216.26 23.82L216.26 23.82L207.22 23.82Q207.29 24.75 207.70 25.48Q208.10 26.22 208.81 26.62Q209.52 27.03 210.43 27.03L210.43 27.03Q211.42 27.03 212.10 26.60Q212.78 26.17 213.17 25.35L213.17 25.35L216.02 25.35Q215.69 26.43 214.96 27.32Q214.22 28.21 213.11 28.75Q211.99 29.29 210.48 29.29ZM207.24 21.92L207.24 21.92L213.55 21.92Q213.53 20.60 212.62 19.83Q211.70 19.06 210.43 19.06L210.43 19.06Q209.28 19.06 208.36 19.76Q207.43 20.46 207.24 21.92ZM220.85 29.29L220.85 29.29Q219.74 29.29 218.80 28.87Q217.85 28.45 217.28 27.63Q216.72 26.82 216.72 25.69L216.72 25.69Q216.72 24.34 217.39 23.50Q218.06 22.66 219.22 22.27Q220.37 21.87 221.76 21.87L221.76 21.87L224.74 21.87Q224.74 20.91 224.42 20.30Q224.11 19.69 223.56 19.39Q223.01 19.09 222.26 19.09L222.26 19.09Q221.30 19.09 220.58 19.52Q219.86 19.95 219.70 20.94L219.70 20.94L216.96 20.94Q217.08 19.64 217.84 18.72Q218.59 17.79 219.77 17.30Q220.94 16.81 222.29 16.81L222.29 16.81Q224.02 16.81 225.16 17.44Q226.30 18.08 226.88 19.21Q227.47 20.34 227.47 21.82L227.47 21.82L227.47 25.45Q227.50 26.10 227.80 26.38Q228.10 26.67 228.74 26.70L228.74 26.70L228.74 29Q227.74 29 227.02 28.78Q226.30 28.57 225.83 28.14Q225.36 27.70 225.07 27.01L225.07 27.01Q224.50 27.97 223.38 28.63Q222.26 29.29 220.85 29.29ZM221.54 27.08L221.54 27.08Q222.48 27.08 223.19 26.64Q223.90 26.19 224.32 25.44Q224.74 24.68 224.74 23.77L224.74 23.77L224.74 23.70L221.95 23.70Q221.33 23.70 220.75 23.86Q220.18 24.03 219.84 24.40Q219.50 24.78 219.50 25.42L219.50 25.42Q219.50 26.29 220.10 26.68Q220.70 27.08 221.54 27.08ZM235.42 29L233.52 29Q231.70 29 230.74 28.11Q229.78 27.22 229.78 25.28L229.78 25.28L229.78 19.38L228.07 19.38L228.07 17.10L229.78 17.10L229.78 14.22L232.51 14.22L232.51 17.10L235.42 17.10L235.42 19.38L232.51 19.38L232.51 25.30Q232.51 26.12 232.90 26.42Q233.28 26.72 234.05 26.72L234.05 26.72L235.42 26.72L235.42 29ZM240.91 29.29L240.91 29.29Q239.42 29.29 238.36 28.66Q237.29 28.04 236.71 26.88Q236.14 25.71 236.14 24.13L236.14 24.13L236.14 17.10L238.85 17.10L238.85 23.74Q238.85 25.23 239.56 26.11Q240.26 26.98 241.66 26.98L241.66 26.98Q243.07 26.98 243.86 26.07Q244.66 25.16 244.66 23.55L244.66 23.55L244.66 17.10L247.37 17.10L247.37 29L244.73 29L244.68 27.37Q244.08 28.28 243.07 28.78Q242.06 29.29 240.91 29.29ZM251.42 29L248.71 29L248.71 17.10L251.35 17.10L251.40 19.04Q252.00 17.98 253.02 17.40Q254.04 16.81 255.38 16.81L255.38 16.81L255.38 19.66L254.64 19.66Q253.01 19.66 252.22 20.48Q251.42 21.30 251.42 23.02L251.42 23.02L251.42 29ZM261.14 29.29L261.14 29.29Q259.34 29.29 258.00 28.48Q256.66 27.68 255.90 26.28Q255.14 24.87 255.14 23.05L255.14 23.05Q255.14 21.15 255.90 19.76Q256.66 18.37 258.01 17.59Q259.37 16.81 261.17 16.81L261.17 16.81Q262.92 16.81 264.22 17.56Q265.51 18.32 266.26 19.64Q267.00 20.96 267.00 22.64L267.00 22.64Q267.00 22.98 266.99 23.24Q266.98 23.50 266.93 23.82L266.93 23.82L257.88 23.82Q257.95 24.75 258.36 25.48Q258.77 26.22 259.48 26.62Q260.18 27.03 261.10 27.03L261.10 27.03Q262.08 27.03 262.76 26.60Q263.45 26.17 263.83 25.35L263.83 25.35L266.69 25.35Q266.35 26.43 265.62 27.32Q264.89 28.21 263.77 28.75Q262.66 29.29 261.14 29.29ZM257.90 21.92L257.90 21.92L264.22 21.92Q264.19 20.60 263.28 19.83Q262.37 19.06 261.10 19.06L261.10 19.06Q259.94 19.06 259.02 19.76Q258.10 20.46 257.90 21.92ZM276.19 23.19L267.84 23.19L267.84 20.91L276.19 20.91L276.19 23.19ZM280.75 29L278.04 29L278.04 19.38L276.50 19.38L276.50 17.10L278.04 17.10L278.04 15.97Q278.04 13.95 279.05 13.08Q280.06 12.20 281.86 12.20L281.86 12.20L282.94 12.20L282.94 14.53L282.29 14.53Q281.45 14.53 281.10 14.85Q280.75 15.18 280.75 15.97L280.75 15.97L280.75 17.10L283.15 17.10L283.15 19.38L280.75 19.38L280.75 29ZM286.73 29L284.02 29L284.02 12.20L286.73 12.20L286.73 29ZM291.84 29.29L291.84 29.29Q290.74 29.29 289.79 28.87Q288.84 28.45 288.28 27.63Q287.71 26.82 287.71 25.69L287.71 25.69Q287.71 24.34 288.38 23.50Q289.06 22.66 290.21 22.27Q291.36 21.87 292.75 21.87L292.75 21.87L295.73 21.87Q295.73 20.91 295.42 20.30Q295.10 19.69 294.55 19.39Q294.00 19.09 293.26 19.09L293.26 19.09Q292.30 19.09 291.58 19.52Q290.86 19.95 290.69 20.94L290.69 20.94L287.95 20.94Q288.07 19.64 288.83 18.72Q289.58 17.79 290.76 17.30Q291.94 16.81 293.28 16.81L293.28 16.81Q295.01 16.81 296.15 17.44Q297.29 18.08 297.88 19.21Q298.46 20.34 298.46 21.82L298.46 21.82L298.46 25.45Q298.49 26.10 298.79 26.38Q299.09 26.67 299.74 26.70L299.74 26.70L299.74 29Q298.73 29 298.01 28.78Q297.29 28.57 296.82 28.14Q296.35 27.70 296.06 27.01L296.06 27.01Q295.49 27.97 294.37 28.63Q293.26 29.29 291.84 29.29ZM292.54 27.08L292.54 27.08Q293.47 27.08 294.18 26.64Q294.89 26.19 295.31 25.44Q295.73 24.68 295.73 23.77L295.73 23.77L295.73 23.70L292.94 23.70Q292.32 23.70 291.74 23.86Q291.17 24.03 290.83 24.40Q290.50 24.78 290.50 25.42L290.50 25.42Q290.50 26.29 291.10 26.68Q291.70 27.08 292.54 27.08ZM305.35 34.57L305.35 34.57Q303.79 34.57 302.50 34.21Q301.20 33.85 300.42 33.03Q299.64 32.22 299.64 30.87L299.64 30.87Q299.64 29.98 300.04 29.36Q300.43 28.74 301.18 28.33L301.18 28.33Q300.58 27.97 300.24 27.43Q299.90 26.89 299.90 26.19L299.90 26.19Q299.90 24.66 301.34 23.79L301.34 23.79Q300.82 23.24 300.54 22.54Q300.26 21.85 300.26 21.06L300.26 21.06Q300.26 19.74 300.88 18.79Q301.49 17.84 302.58 17.32Q303.67 16.81 305.09 16.81L305.09 16.81Q306.10 16.81 306.98 17.10L306.98 17.10L311.18 17.10L311.18 19.21L309.46 19.21Q309.65 19.64 309.78 20.10Q309.91 20.55 309.91 21.06L309.91 21.06Q309.91 22.33 309.26 23.29Q308.62 24.25 307.54 24.76Q306.46 25.28 305.09 25.28L305.09 25.28Q304.46 25.28 303.94 25.16Q303.41 25.04 302.90 24.80L302.90 24.80Q302.35 25.09 302.35 25.69L302.35 25.69Q302.35 26.79 304.20 26.79L304.20 26.79L306.31 26.79Q307.73 26.79 308.75 27.16Q309.77 27.54 310.32 28.36Q310.87 29.19 310.87 30.49L310.87 30.49Q310.87 31.78 310.12 32.70Q309.36 33.61 308.10 34.09Q306.84 34.57 305.35 34.57ZM305.33 32.41L305.33 32.41Q306.58 32.41 307.45 31.98Q308.33 31.54 308.33 30.68L308.33 30.68Q308.33 29.05 306.17 29.05L306.17 29.05L304.34 29.05Q303.31 29.05 302.75 29.47Q302.18 29.89 302.18 30.68L302.18 30.68Q302.18 31.33 302.62 31.70Q303.05 32.07 303.77 32.24Q304.49 32.41 305.33 32.41ZM305.04 23.12L305.04 23.12Q306.07 23.12 306.73 22.54Q307.39 21.97 307.39 21.06L307.39 21.06Q307.39 20.14 306.73 19.56Q306.07 18.97 305.04 18.97L305.04 18.97Q304.03 18.97 303.40 19.56Q302.76 20.14 302.76 21.06L302.76 21.06Q302.76 21.97 303.37 22.54Q303.98 23.12 305.04 23.12ZM316.51 29.29L316.51 29.29Q315.14 29.29 313.98 28.80Q312.82 28.30 312.08 27.39Q311.35 26.48 311.26 25.26L311.26 25.26L313.99 25.26Q314.14 26.10 314.82 26.61Q315.50 27.13 316.49 27.13L316.49 27.13Q317.38 27.13 317.96 26.74Q318.55 26.36 318.55 25.69L318.55 25.69Q318.55 25.11 318.14 24.79Q317.74 24.46 317.14 24.28Q316.54 24.10 315.89 23.96L315.89 23.96Q314.76 23.70 313.79 23.31Q312.82 22.93 312.22 22.23Q311.62 21.54 311.62 20.41L311.62 20.41Q311.62 19.28 312.24 18.48Q312.86 17.67 313.91 17.24Q314.95 16.81 316.25 16.81L316.25 16.81Q318.22 16.81 319.52 17.79Q320.83 18.78 320.98 20.67L320.98 20.67L318.38 20.67Q318.29 19.86 317.70 19.42Q317.11 18.99 316.18 18.99L316.18 18.99Q315.36 18.99 314.82 19.30Q314.28 19.62 314.28 20.31L314.28 20.31Q314.28 20.79 314.68 21.10Q315.07 21.42 315.68 21.62Q316.30 21.82 316.90 21.97L316.90 21.97Q318.12 22.26 319.08 22.64Q320.04 23.02 320.60 23.72Q321.17 24.42 321.19 25.62L321.19 25.62Q321.19 26.77 320.57 27.58Q319.94 28.40 318.89 28.84Q317.83 29.29 316.51 29.29Z"/>
      </svg>